{
  "accessors": [
    {
      "bufferView": 2,
      "componentType": 5126,
      "count": 24581,
      "max": [
        10.176461219787598,
        18.408119201660156,
        7.3459229469299316
      ],
      "min": [
        -8.2838258743286133,
        -7.7105379104614258,
        -0.0031139999628067017
      ],
      "type": "VEC3"
    },
    {
      "bufferView": 2,
      "byteOffset": 294972,
      "componentType": 5126,
      "count": 24581,
      "max": [
        1,
        1,
        1
      ],
      "min": [
        -1,
        -1,
        -1
      ],
      "type": "VEC3"
    },
    {
      "bufferView": 3,
      "componentType": 5126,
      "count": 24581,
      "max": [
        1,
        1,
        1,
        1
      ],
      "min": [
        -1,
        -1,
        -1,
        -1
      ],
      "type": "VEC4"
    },
    {
      "bufferView": 1,
      "componentType": 5126,
      "count": 24581,
      "max": [
        0.99239999055862427,
        0.99690002202987671
      ],
      "min": [
        0.0068999999202787876,
        0.0098000001162290573
      ],
      "type": "VEC2"
    },
    {
      "bufferView": 0,
      "componentType": 5125,
      "count": 47070,
      "max": [
        24580
      ],
      "min": [
        0
      ],
      "type": "SCALAR"
    }
  ],
  "asset": {
    "extras": {
      "author": "adishah (https://sketchfab.com/adishah)",
      "license": "CC-BY-4.0 (http://creativecommons.org/licenses/by/4.0/)",
      "source": "https://sketchfab.com/models/787eee9d47f0440ba9491b9e9ed14606",
      "title": "Stadium"
    },
    "generator": "Sketchfab-3.42.3",
    "version": "2.0"
  },
  "bufferViews": [
    {
      "buffer": 0,
      "byteLength": 188280,
      "byteOffset": 0,
      "name": "floatBufferViews",
      "target": 34963
    },
    {
      "buffer": 0,
      "byteLength": 196648,
      "byteOffset": 188280,
      "byteStride": 8,
      "name": "floatBufferViews",
      "target": 34962
    },
    {
      "buffer": 0,
      "byteLength": 589944,
      "byteOffset": 384928,
      "byteStride": 12,
      "name": "floatBufferViews",
      "target": 34962
    },
    {
      "buffer": 0,
      "byteLength": 393296,
      "byteOffset": 974872,
      "byteStride": 16,
      "name": "floatBufferViews",
      "target": 34962
    }
  ],
  "buffers": [
    {
      "byteLength": 1368168,
      "uri": "scene.bin"
    }
  ],
  "images": [
    {
      "uri": "textures/Wembley_stadion_V3_Iteration0_Wembley_stadion_V1_Diffuse_emissive.jpeg"
    },
    {
      "uri": "textures/Wembley_stadion_V3_Iteration0_Wembley_stadion_V1_Diffuse_baseColor.jpeg"
    }
  ],
  "materials": [
    {
      "doubleSided": true,
      "emissiveFactor": [
        0,
        0,
        0
      ],
      "emissiveTexture": {
        "index": 0,
        "texCoord": 0
      },
      "name": "Wembley_stadion_V3_Iteration0_Wembley_stadion_V1_Diffuse",
      "pbrMetallicRoughness": {
        "baseColorFactor": [
          1,
          1,
          1,
          1
        ],
        "baseColorTexture": {
          "index": 1,
          "texCoord": 0
        },
        "metallicFactor": 0,
        "roughnessFactor": 1
      }
    }
  ],
  "meshes": [
    {
      "primitives": [
        {
          "attributes": {
            "NORMAL": 1,
            "POSITION": 0,
            "TANGENT": 2,
            "TEXCOORD_0": 3
          },
          "indices": 4,
          "material": 0,
          "mode": 4
        }
      ]
    }
  ],
  "nodes": [
    {
      "children": [
        1
      ],
      "name": "RootNode (gltf orientation matrix)",
      "rotation": [
        -0.70710678118654746,
        -0,
        -0,
        0.70710678118654757
      ]
    },
    {
      "children": [
        2
      ],
      "name": "RootNode (model correction matrix)"
    },
    {
      "children": [
        3
      ],
      "name": "stadium.obj.cleaner.materialmerger.gles"
    },
    {
      "mesh": 0,
      "name": ""
    }
  ],
  "samplers": [
    {
      "magFilter": 9729,
      "minFilter": 9987,
      "wrapS": 10497,
      "wrapT": 10497
    }
  ],
  "scene": 0,
  "scenes": [
    {
      "name": "OSG_Scene",
      "nodes": [
        0
      ]
    }
  ],
  "textures": [
    {
      "sampler": 0,
      "source": 0
    },
    {
      "sampler": 0,
      "source": 1
    }
  ]
}

